<svg xmlns="http://www.w3.org/2000/svg" width="34" height="34" viewBox="1746 3261.95 34 34"><g data-name="Group 9283"><g data-name="right-arrow-angle"><g data-name="_x38_"><g data-name="Group 2643"><g data-name="Path 4706"><path d="m1766.91 3278.362-7.937-7.233a.67.67 0 0 0-.944 0c-.26.259-.26.68 0 .938l7.459 6.798-7.458 6.797c-.26.26-.26.68 0 .94.26.258.683.258.943 0l7.937-7.234a.654.654 0 0 0 .19-.502.66.66 0 0 0-.19-.504Z" fill="#fff" fill-rule="evenodd"/><path d="m1766.91 3278.362-7.937-7.233a.67.67 0 0 0-.944 0c-.26.259-.26.68 0 .938l7.459 6.798-7.458 6.797c-.26.26-.26.68 0 .94.26.258.683.258.943 0l7.937-7.234a.654.654 0 0 0 .19-.502.66.66 0 0 0-.19-.504Z" stroke-linejoin="round" stroke-linecap="round" stroke="#fff" fill="transparent"/></g></g></g></g><path d="M1746 3278.9a17 17 0 1 1 0 .1z" fill="#12406f" fill-rule="evenodd" data-name="Ellipse 100"/></g></svg>